<svg width="25" height="24" viewBox="0 0 25 24" fill="none" xmlns="http://www.w3.org/2000/svg">
<path fill-rule="evenodd" clip-rule="evenodd" d="M1.82651 23.2096L6.31589 22.0319L6.74903 22.289C8.57021 23.3697 10.6578 23.9415 12.7863 23.9424H12.7911C19.3289 23.9424 24.6499 18.6212 24.6526 12.0807C24.6538 8.91122 23.4212 5.9311 21.1817 3.689C18.9422 1.4469 15.964 0.211548 12.7958 0.210449C6.25295 0.210449 0.931795 5.53112 0.9292 12.0711C0.92828 14.3124 1.55539 16.4951 2.74276 18.3836L3.02479 18.8324L1.82651 23.2096ZM19.4924 15.1541C19.7411 15.2743 19.9091 15.3554 19.9808 15.4751C20.0699 15.6238 20.0699 16.3378 19.7729 17.1709C19.4756 18.0038 18.0511 18.764 17.3659 18.8663C16.7516 18.9582 15.9742 18.9965 15.12 18.725C14.602 18.5607 13.9379 18.3413 13.0871 17.9739C9.74419 16.5304 7.48505 13.2904 7.05808 12.678C7.02817 12.6351 7.00725 12.6051 6.99557 12.5896L6.9927 12.5857C6.80399 12.3339 5.53954 10.6468 5.53954 8.90079C5.53954 7.25825 6.34638 6.39732 6.71776 6.00103C6.74321 5.97388 6.76661 5.94891 6.78757 5.92602C7.11441 5.56902 7.50076 5.47977 7.73846 5.47977C7.97616 5.47977 8.21414 5.48196 8.4219 5.4924C8.44753 5.49369 8.4742 5.49353 8.50177 5.49337C8.70957 5.49215 8.96863 5.49063 9.2242 6.10452C9.32252 6.34077 9.46639 6.69101 9.61812 7.06042C9.92496 7.80743 10.264 8.63278 10.3236 8.75222C10.4128 8.93072 10.4722 9.13888 10.3534 9.37697C10.3355 9.41267 10.319 9.44636 10.3032 9.47855C10.214 9.6608 10.1483 9.79487 9.99678 9.97179C9.9372 10.0414 9.87562 10.1163 9.81404 10.1913C9.69136 10.3407 9.5687 10.4901 9.46188 10.5965C9.28337 10.7743 9.09753 10.9673 9.30554 11.3243C9.51355 11.6813 10.2292 12.8489 11.2893 13.7945C12.4288 14.8109 13.4192 15.2405 13.9212 15.4583C14.0192 15.5008 14.0986 15.5352 14.1569 15.5644C14.5133 15.7429 14.7214 15.7131 14.9294 15.4751C15.1374 15.2372 15.8208 14.4339 16.0585 14.0769C16.2961 13.7201 16.534 13.7795 16.8608 13.8985C17.1877 14.0176 18.9408 14.8801 19.2974 15.0586C19.367 15.0935 19.4321 15.1249 19.4924 15.1541Z" fill="black"/>
</svg>
