<svg width="23" height="23" viewBox="0 0 23 23" fill="none" xmlns="http://www.w3.org/2000/svg">
<path d="M21.9078 10.5923C21.9746 10.5926 22.0408 10.5789 22.1021 10.5521C22.1634 10.5253 22.2184 10.486 22.2636 10.4367C22.3088 10.3875 22.3432 10.3293 22.3647 10.2659C22.3861 10.2026 22.394 10.1355 22.388 10.0689C22.152 7.49923 21.0238 5.09332 19.1991 3.26867C17.3745 1.44402 14.9686 0.315788 12.3989 0.0797779C12.3316 0.0741807 12.2639 0.0828359 12.2002 0.105179C12.1365 0.127521 12.0782 0.163049 12.0291 0.209444C11.9803 0.254771 11.9414 0.309777 11.9149 0.370961C11.8884 0.432145 11.875 0.498167 11.8755 0.564825C11.9667 7.61481 12.8792 10.4915 21.9078 10.5923ZM21.9078 11.5528C12.8936 11.6489 11.9667 14.5303 11.8803 21.5803C11.8804 21.6473 11.8946 21.7136 11.9219 21.7748C11.9492 21.836 11.989 21.8908 12.0387 21.9357C12.1261 22.0175 12.2408 22.0637 12.3605 22.0654H12.3989C14.9679 21.8308 17.3738 20.7044 19.1992 18.8816C21.0247 17.0588 22.1545 14.6546 22.3928 12.0859C22.3984 12.0186 22.3898 11.9509 22.3674 11.8872C22.3451 11.8235 22.3095 11.7652 22.2632 11.7161C22.2174 11.6681 22.1622 11.6301 22.101 11.6045C22.0399 11.5788 21.9741 11.5662 21.9078 11.5672V11.5528ZM10.3483 0.0797779C7.78467 0.323208 5.38668 1.45471 3.56885 3.27868C1.75102 5.10265 0.627605 7.50444 0.392818 10.0689C0.386799 10.1355 0.394757 10.2026 0.416181 10.2659C0.437606 10.3293 0.472025 10.3875 0.517234 10.4367C0.562444 10.486 0.617447 10.5253 0.678721 10.5521C0.739995 10.5789 0.806189 10.5926 0.873063 10.5923C9.86324 10.4915 10.7901 7.61001 10.8718 0.560022C10.8715 0.494173 10.8578 0.42907 10.8314 0.36876C10.8049 0.30845 10.7664 0.254222 10.7181 0.209444C10.669 0.163049 10.6107 0.127521 10.547 0.105179C10.4833 0.0828359 10.4156 0.0741807 10.3483 0.0797779ZM0.873063 11.5672C0.805649 11.5605 0.737641 11.5711 0.67546 11.598C0.613279 11.6249 0.558977 11.6672 0.517682 11.7209C0.472769 11.7698 0.438485 11.8275 0.416993 11.8903C0.395502 11.9531 0.38727 12.0197 0.392818 12.0859C0.627605 14.6503 1.75102 17.0521 3.56885 18.8761C5.38668 20.7 7.78467 21.8315 10.3483 22.075H10.3915C10.5189 22.075 10.641 22.0244 10.7311 21.9343C10.8212 21.8443 10.8718 21.7221 10.8718 21.5947C10.7901 14.5495 9.86324 11.6681 0.873063 11.5672Z" fill="black"/>
</svg>
