<svg width="161" height="22" viewBox="0 0 161 22" fill="none" xmlns="http://www.w3.org/2000/svg">
<g clip-path="url(#clip0_63_752)">
<path fill-rule="evenodd" clip-rule="evenodd" d="M46.9596 12.0785C47.0151 12.994 47.3931 13.7858 48.0936 14.4538C48.7942 15.1219 49.6173 15.4552 50.563 15.4552C51.1994 15.4552 51.789 15.3155 52.3348 15.0331C52.8806 14.7508 53.2674 14.4684 53.4951 14.186L53.857 13.7727L54.8101 14.7231C54.7506 14.8009 54.6903 14.878 54.6291 14.9545C54.4684 15.1351 54.2952 15.3044 54.111 15.461C53.8453 15.6987 53.5569 15.9098 53.2499 16.0913C52.8732 16.3029 52.4743 16.4728 52.0604 16.5978C51.5763 16.7516 51.0712 16.8297 50.563 16.8292C49.1765 16.8292 47.9798 16.3154 46.9801 15.2849C45.9789 14.2559 45.4768 13.0086 45.4768 11.5415C45.4768 10.0743 45.973 8.827 46.9655 7.79653C47.955 6.76752 49.1211 6.25374 50.4594 6.25374C51.8488 6.25374 53.0076 6.73404 53.9402 7.69319C54.8728 8.6538 55.3384 9.86766 55.3384 11.3348L55.2348 12.0989L46.9596 12.0785ZM48.1301 8.57666C47.4897 9.16059 47.0755 9.95032 46.9596 10.8079H53.857C53.7461 9.89095 53.3754 9.13411 52.7435 8.53591C52.4411 8.24308 52.0836 8.01284 51.6916 7.85846C51.2996 7.70408 50.8808 7.62862 50.4594 7.63643C49.5691 7.63643 48.7927 7.95081 48.1301 8.57666ZM63.2895 21.0646H61.8082V6.4706H63.2895V8.06143C63.3172 8.01776 63.3669 7.95663 63.4398 7.86931C63.5128 7.78198 63.6588 7.63643 63.885 7.43121C64.1101 7.2242 64.3544 7.03901 64.6147 6.87813C64.8774 6.71658 65.2131 6.57248 65.6247 6.4444C66.0362 6.31778 66.4595 6.25374 66.8944 6.25374C68.1918 6.25374 69.3302 6.77334 70.3066 7.81109C71.283 8.8532 71.7719 10.0962 71.7719 11.5473C71.7719 12.9969 71.2844 14.2399 70.311 15.2733C69.3375 16.311 68.1991 16.8306 66.8944 16.8306C66.4595 16.8306 66.0391 16.768 65.6349 16.6443C65.2768 16.5404 64.9334 16.3912 64.6132 16.2004C64.3611 16.0439 64.1211 15.8688 63.8952 15.6764C63.7302 15.5396 63.576 15.3902 63.434 15.2296L63.2881 15.0331V21.0646H63.2895ZM64.4031 14.2821C65.1445 15.0651 65.9749 15.4567 66.8944 15.4567C67.7701 15.4567 68.5567 15.0753 69.2499 14.3156C69.9446 13.5544 70.2905 12.6316 70.2905 11.5473C70.2905 10.463 69.9446 9.53873 69.2499 8.77897C68.5567 8.01776 67.7701 7.63789 66.8944 7.63789C65.9749 7.63789 65.143 8.02795 64.4031 8.80954C63.6588 9.59113 63.2895 10.5037 63.2895 11.5458C63.2895 12.5894 63.6602 13.502 64.4031 14.2821ZM85.0968 15.6939C84.4429 16.3139 83.541 16.624 82.3953 16.624H78.2417V6.4706H79.723V9.85748H82.3749C83.5205 9.85748 84.4254 10.1675 85.088 10.7875C85.7506 11.4076 86.0804 12.2255 86.0804 13.24C86.0804 14.2559 85.7535 15.0739 85.0982 15.6939H85.0968ZM82.3953 15.25C83.0579 15.25 83.5906 15.0608 83.9949 14.6867C84.3991 14.3112 84.6005 13.828 84.6005 13.2356C84.6005 12.6432 84.3991 12.1615 83.9949 11.7903C83.5906 11.4177 83.0506 11.2314 82.3749 11.2314H79.723V15.2485H82.3938L82.3953 15.25ZM97.6102 13.9706C97.8349 14.9938 98.1064 15.8627 98.4275 16.5788C98.7485 17.2949 99.0725 17.9353 99.3965 18.5C99.722 19.0648 99.9978 19.481 100.226 19.7488L100.557 20.1709L99.3965 20.8113C99.2609 20.6707 99.1328 20.523 99.0127 20.3689C98.8551 20.1695 98.5749 19.7401 98.175 19.0837C97.7726 18.4234 97.4195 17.7346 97.1183 17.0227C96.8148 16.3067 96.5345 15.3868 96.2791 14.2646C96.0247 13.1496 95.8965 12.0096 95.8968 10.8661C95.8968 9.72357 96.0135 8.59995 96.2529 7.49525C96.4922 6.38909 96.7812 5.45759 97.1227 4.70075C97.4657 3.94391 97.8087 3.26857 98.1545 2.67619C98.499 2.08382 98.7923 1.6399 99.0346 1.34444L99.3965 0.920898L100.557 1.5613C100.437 1.70276 100.321 1.84739 100.209 1.99503C100.062 2.18716 99.7964 2.5976 99.417 3.22345C99.0375 3.8493 98.7062 4.50135 98.4231 5.17378C98.1399 5.85057 97.8772 6.70639 97.635 7.74268C97.3946 8.76654 97.2732 9.81457 97.273 10.8661C97.273 11.9141 97.3854 12.9474 97.6087 13.9706H97.6102ZM107.987 6.00194H116.677V7.3759H113.072V16.1553H111.592V7.3759H107.987V6.00194ZM129.194 9.70029C129.194 8.94926 128.956 8.34088 128.479 7.87222C128.003 7.40356 127.392 7.16923 126.646 7.16923C126.108 7.16923 125.603 7.29149 125.13 7.536C124.657 7.78052 124.312 8.03086 124.099 8.28557L123.778 8.64653L122.825 7.69611C122.866 7.6408 122.923 7.57093 122.996 7.48506C123.146 7.32434 123.305 7.17225 123.472 7.0295C123.717 6.81409 123.974 6.61906 124.245 6.44731C124.576 6.24706 124.933 6.09235 125.305 5.98739C125.744 5.85348 126.191 5.78362 126.648 5.78362C127.806 5.78362 128.768 6.16059 129.531 6.91161C130.293 7.66263 130.676 8.59122 130.676 9.70029V16.1553H129.194V14.7813C129.154 14.8401 129.11 14.897 129.064 14.9516C129.006 15.0244 128.875 15.1525 128.672 15.3344C128.468 15.5163 128.249 15.6794 128.015 15.8205C127.723 15.9849 127.411 16.1116 127.087 16.1975C126.701 16.3073 126.302 16.3626 125.9 16.362C124.886 16.362 124.032 16.0621 123.338 15.4639C122.643 14.8643 122.297 14.1802 122.297 13.4088C122.297 12.5617 122.552 11.8777 123.063 11.3566C123.574 10.8385 124.31 10.4979 125.268 10.3407L129.194 9.70029ZM128.268 14.0463C128.885 13.4205 129.194 12.6083 129.194 11.6099V10.9695L125.695 11.6099C124.425 11.85 123.784 12.4497 123.778 13.4074C123.778 13.8615 123.965 14.237 124.342 14.5383C124.718 14.8366 125.238 14.9865 125.9 14.9865C126.861 14.9865 127.649 14.6736 128.268 14.0463ZM139.362 16.1553H137.881V6.00194H139.362V11.3945L144.447 6.00194H146.26L142.334 10.1238L146.683 16.1553H144.986L141.381 11.1878L139.362 13.304V16.1553ZM158.325 7.76306C158.1 6.73986 157.825 5.87095 157.496 5.15486C157.2 4.50177 156.877 3.86084 156.529 3.23364C156.21 2.66892 155.937 2.25265 155.71 1.98485L155.379 1.5613L156.539 0.920898C156.635 1.01696 156.762 1.16542 156.921 1.36482C157.08 1.56422 157.359 1.99212 157.76 2.65C158.162 3.30787 158.515 3.99485 158.821 4.71094C159.128 5.42703 159.408 6.34689 159.661 7.46905C159.913 8.59122 160.039 9.72357 160.039 10.8661C160.039 12.0101 159.92 13.1337 159.682 14.2384C159.443 15.3446 159.15 16.2761 158.801 17.0329C158.451 17.7898 158.109 18.4651 157.771 19.0575C157.516 19.5234 157.225 19.9687 156.901 20.3892L156.539 20.8128L155.379 20.1724C155.498 20.0309 155.614 19.8863 155.726 19.7387C155.872 19.5465 156.139 19.1361 156.523 18.5102C156.907 17.8829 157.238 17.2323 157.515 16.5585C157.797 15.8831 158.058 15.0273 158.299 13.991C158.539 12.9667 158.661 11.9181 158.661 10.8661C158.661 9.81963 158.55 8.78625 158.325 7.76306Z" fill="white"/>
<path fill-rule="evenodd" clip-rule="evenodd" d="M100.532 5.83163L99.6081 1.52054L95.3275 2.62524L95.04 1.51617L100.479 0.113098L101.654 5.59294L100.532 5.83163ZM155.016 21.8869L154.009 16.375L155.139 16.1698L155.932 20.5071L160.243 19.532L160.497 20.6498L155.016 21.8869ZM0 6.46913H8.68962V7.84455H5.08476V16.6239H3.60486V7.84455H0V6.46913ZM15.3666 12.0785C15.4221 12.994 15.8001 13.7858 16.5006 14.4538C17.2012 15.1219 18.0243 15.4552 18.9701 15.4552C19.6064 15.4552 20.196 15.3155 20.7418 15.0331C21.2877 14.7507 21.6744 14.4684 21.9021 14.186L22.2641 13.7727L23.2171 14.7231C23.1576 14.8009 23.0973 14.878 23.0361 14.9545C22.8754 15.1351 22.7023 15.3044 22.518 15.461C22.2523 15.6987 21.9639 15.9098 21.6569 16.0912C21.2802 16.3029 20.8813 16.4728 20.4675 16.5977C19.9833 16.7516 19.4782 16.8297 18.9701 16.8292C17.5836 16.8292 16.3868 16.3154 15.3871 15.2849C14.3859 14.2559 13.8838 13.0085 13.8838 11.5414C13.8838 10.0743 14.3801 8.82699 15.3725 7.79652C16.362 6.7675 17.5281 6.25372 18.8664 6.25372C20.2558 6.25372 21.4146 6.73402 22.3472 7.69318C23.2798 8.65379 23.7454 9.86765 23.7454 11.3348L23.6418 12.0989L15.3666 12.0785ZM16.5371 8.57665C15.8968 9.16057 15.4825 9.9503 15.3666 10.8079H22.2641C22.1531 9.89094 21.7824 9.13409 21.1505 8.53589C20.8481 8.24306 20.4906 8.01282 20.0986 7.85844C19.7066 7.70407 19.2878 7.62861 18.8664 7.63642C17.9762 7.63642 17.1997 7.9508 16.5371 8.57665ZM37.5271 7.86492H31.6965V16.6239H30.2152V6.47058H39.0187V16.6239H37.5271V7.86492Z" fill="white"/>
</g>
<defs>
<clipPath id="clip0_63_752">
<rect width="160.497" height="21.7738" fill="white" transform="translate(0 0.113098)"/>
</clipPath>
</defs>
</svg>
