<svg width="19" height="16" viewBox="0 0 19 16" fill="none" xmlns="http://www.w3.org/2000/svg">
<path d="M16.772 13.7101C17.082 12.7101 18.542 3.19008 18.772 1.31008C18.8232 1.09213 18.7998 0.863302 18.7056 0.660235C18.6113 0.457168 18.4516 0.291614 18.252 0.190084C17.6562 0.019702 17.0182 0.0767227 16.462 0.350084C15.462 0.710084 2.58204 6.18008 1.83204 6.49008C1.08204 6.80008 0.462036 7.08008 0.462036 7.59008C0.462036 8.10008 0.662036 8.11008 1.20204 8.31008C1.74204 8.51008 3.20204 8.94008 4.04204 9.17008C4.80108 9.37165 5.60891 9.26753 6.29204 8.88008C6.83204 8.54008 13.162 4.31008 13.622 3.94008C14.082 3.57008 14.432 4.04008 14.062 4.41008C13.692 4.78008 9.35204 9.00008 8.77204 9.58008C8.64849 9.70028 8.55551 9.84831 8.50087 10.0118C8.44622 10.1753 8.4315 10.3494 8.45793 10.5198C8.48436 10.6901 8.55118 10.8516 8.65279 10.9909C8.75441 11.1301 8.88788 11.243 9.04204 11.3201C9.57204 11.6601 13.402 14.2301 13.982 14.6401C14.4738 15.0096 15.0673 15.2191 15.682 15.2401C16.222 15.2401 16.462 14.5301 16.772 13.7101Z" fill="black"/>
</svg>
