<svg width="19" height="12" viewBox="0 0 19 12" fill="none" xmlns="http://www.w3.org/2000/svg">
<path d="M18.63 10.2329C17.8857 8.89303 15.9683 7.28304 15.1767 6.58245C14.9601 6.39063 14.9369 6.05877 15.134 5.84665C16.6447 4.22298 17.853 2.35737 18.2688 1.23004C18.4523 0.732045 18.0725 0.205877 17.5373 0.205877H15.9828C15.4704 0.205877 15.1705 0.389829 15.0276 0.682743C13.7721 3.25599 12.6951 4.36965 11.9412 5.02052C11.5192 5.38511 10.861 5.08308 10.861 4.52833C10.861 3.45942 10.861 2.07771 10.861 1.09788C10.861 0.622668 10.4724 0.238193 9.99317 0.238193L7.15329 0.205877C6.79582 0.205877 6.59161 0.610653 6.80617 0.894453L7.27507 1.5677C7.45153 1.80095 7.5468 2.08475 7.5468 2.37601L7.54431 5.4079C7.54431 5.93531 6.90517 6.19301 6.52575 5.82345C5.24208 4.57307 4.12825 2.01971 3.72729 0.798748C3.61131 0.445346 3.28035 0.206706 2.90506 0.205877L1.3737 0.202148C0.799178 0.202148 0.37916 0.74696 0.53532 1.2955C1.93455 6.20792 4.8055 10.8813 9.92192 11.388C10.426 11.4377 10.861 11.0317 10.861 10.5291V8.93571C10.861 8.47873 11.2193 8.08597 11.6799 8.07437C11.696 8.07395 11.7122 8.07395 11.7283 8.07395C13.0816 8.07395 14.5972 10.044 15.1274 10.9654C15.2798 11.2305 15.5648 11.3921 15.873 11.3921H17.9329C18.5339 11.3921 18.9196 10.7545 18.63 10.2329Z" fill="black"/>
</svg>
