<svg width="19" height="15" viewBox="0 0 19 15" fill="none" xmlns="http://www.w3.org/2000/svg">
<path d="M18.4601 2.62996C18.2928 1.6623 17.4956 0.957617 16.5705 0.737617C15.1861 0.429961 12.624 0.209961 9.85191 0.209961C7.08148 0.209961 4.47835 0.429961 3.09232 0.737617C2.16884 0.957617 1.37002 1.61762 1.20271 2.62996C1.03376 3.72996 0.866455 5.26996 0.866455 7.24996C0.866455 9.22996 1.03376 10.77 1.24372 11.87C1.41267 12.8376 2.20985 13.5423 3.13332 13.7623C4.60301 14.07 7.12249 14.29 9.89456 14.29C12.6666 14.29 15.1861 14.07 16.6558 13.7623C17.5793 13.5423 18.3764 12.8823 18.5454 11.87C18.7127 10.77 18.9227 9.18527 18.9653 7.24996C18.88 5.26996 18.6701 3.72996 18.4601 2.62996ZM7.58504 10.33V4.16996L12.7076 7.24996L7.58504 10.33Z" fill="black"/>
</svg>
