<svg width="27" height="44" viewBox="0 0 27 44" fill="none" xmlns="http://www.w3.org/2000/svg">
<path fill-rule="evenodd" clip-rule="evenodd" d="M2.06802 2.06802C2.91193 1.22411 4.05652 0.75 5.25 0.75H22.125C23.3185 0.75 24.4631 1.22411 25.307 2.06802C26.1509 2.91193 26.625 4.05652 26.625 5.25V30C26.625 33.5804 25.2027 37.0142 22.6709 39.5459C20.1392 42.0777 16.7054 43.5 13.125 43.5C11.8824 43.5 10.875 42.4926 10.875 41.25C10.875 40.0074 11.8824 39 13.125 39C15.5119 39 17.8011 38.0518 19.489 36.364C21.1768 34.6761 22.125 32.3869 22.125 30V27.75H5.25C4.05653 27.75 2.91194 27.2759 2.06802 26.432C1.22411 25.5881 0.75 24.4435 0.75 23.25V5.25C0.75 4.05652 1.22411 2.91193 2.06802 2.06802ZM22.125 23.25V5.25L5.25 5.25L5.25 23.25H22.125Z" fill="white" fill-opacity="0.1"/>
</svg>
