<svg width="22" height="12" viewBox="0 0 22 12" fill="none" xmlns="http://www.w3.org/2000/svg">
<path d="M21.7075 1.7075L11.7075 11.7075C11.6146 11.8005 11.5043 11.8742 11.3829 11.9246C11.2615 11.9749 11.1314 12.0008 11 12.0008C10.8686 12.0008 10.7385 11.9749 10.6171 11.9246C10.4957 11.8742 10.3854 11.8005 10.2925 11.7075L0.292507 1.7075C0.104866 1.51986 -0.000549316 1.26536 -0.000549316 0.999999C-0.000549316 0.734635 0.104866 0.480139 0.292507 0.292499C0.480147 0.104858 0.734643 -0.000556946 1.00001 -0.000556946C1.26537 -0.000556946 1.51987 0.104858 1.70751 0.292499L11 9.58625L20.2925 0.292499C20.3854 0.199588 20.4957 0.125888 20.6171 0.0756054C20.7385 0.0253227 20.8686 -0.000556946 21 -0.000556946C21.1314 -0.000556946 21.2615 0.0253227 21.3829 0.0756054C21.5043 0.125888 21.6146 0.199588 21.7075 0.292499C21.8004 0.385409 21.8741 0.49571 21.9244 0.617103C21.9747 0.738496 22.0006 0.868604 22.0006 0.999999C22.0006 1.13139 21.9747 1.2615 21.9244 1.3829C21.8741 1.50429 21.8004 1.61459 21.7075 1.7075Z" fill="black"/>
</svg>
