<svg width="26" height="26" viewBox="0 0 26 26" fill="none" xmlns="http://www.w3.org/2000/svg">
<path d="M26 9C26.0015 10.4968 25.6297 11.9703 24.9182 13.2871C24.2067 14.604 23.178 15.7226 21.9253 16.5417C20.6725 17.3608 19.2353 17.8546 17.7436 17.9783C16.252 18.1019 14.753 17.8516 13.3825 17.25L6.875 24.7775C6.86 24.795 6.8425 24.8138 6.82625 24.83C6.07601 25.5802 5.05848 26.0017 3.9975 26.0017C2.93651 26.0017 1.91898 25.5802 1.16875 24.83C0.418515 24.0798 -0.00296021 23.0622 -0.00296021 22.0013C-0.00296021 20.9403 0.418515 19.9227 1.16875 19.1725C1.18625 19.1563 1.20375 19.1388 1.2225 19.1238L8.75 12.6175C8.07558 11.0748 7.84699 9.3739 8.09018 7.70784C8.33336 6.04178 9.03858 4.47722 10.1258 3.19162C11.2131 1.90602 12.6389 0.950842 14.2414 0.434437C15.844 -0.0819686 17.5592 -0.138934 19.1925 0.270003C19.3609 0.312203 19.5154 0.397501 19.6408 0.517509C19.7662 0.637517 19.8582 0.788102 19.9077 0.954452C19.9573 1.1208 19.9627 1.29719 19.9234 1.46627C19.8842 1.63534 19.8016 1.79128 19.6837 1.91875L15 7L15.7075 10.2938L19 11L24.0812 6.31C24.2087 6.19219 24.3647 6.10958 24.5337 6.0703C24.7028 6.03103 24.8792 6.03644 25.0455 6.08601C25.2119 6.13557 25.3625 6.22758 25.4825 6.35299C25.6025 6.4784 25.6878 6.63288 25.73 6.80125C25.9094 7.52039 26.0001 8.25881 26 9Z" fill="black"/>
</svg>
