<svg version="1.0" xmlns="http://www.w3.org/2000/svg" width="40.000000pt" height="40.000000pt" viewBox="0 0 120.000000 120.000000" preserveAspectRatio="xMidYMid meet">
    <g transform="translate(0.000000,120.000000) scale(0.100000,-0.100000)" fill="#e8aa31" stroke="none">
        <path d="M50 949 l0 -250 33 3 c30 3 32 5 35 48 1 25 7 54 12 65 5 11 18 42
        29 68 59 139 106 157 423 160 108 1 164 -1 160 -8 -3 -5 -42 -59 -87 -120 -45
        -60 -92 -126 -105 -145 -13 -19 -27 -37 -30 -40 -5 -4 -72 -96 -154 -214 -30
        -42 -101 -138 -139 -189 -12 -16 -35 -48 -52 -72 -105 -150 -148 -207 -161
        -212 -8 -3 -14 -14 -14 -24 0 -18 18 -19 585 -19 l585 0 0 291 0 290 -42 -3
        -43 -3 -6 -75 c-14 -162 -56 -256 -134 -298 -66 -36 -108 -42 -318 -42 l-208
        0 46 62 c62 85 173 240 213 296 17 26 38 54 46 63 7 9 33 45 56 80 24 35 46
        66 50 69 5 4 74 100 154 214 16 22 32 43 36 46 3 3 26 34 50 69 55 82 71 101
        87 101 7 0 13 9 13 20 0 20 -7 20 -560 20 l-560 0 0 -251z"/>
    </g>
</svg>
