<svg width="32" height="24" viewBox="0 0 32 24" fill="none" xmlns="http://www.w3.org/2000/svg">
<path d="M32 10V18C32 18.2652 31.8946 18.5196 31.7071 18.7071C31.5196 18.8946 31.2652 19 31 19C30.7348 19 30.4804 18.8946 30.2929 18.7071C30.1054 18.5196 30 18.2652 30 18V15H28V17C28 17.5304 27.7893 18.0391 27.4142 18.4142C27.0391 18.7893 26.5304 19 26 19H24.4137L20 23.4137C19.815 23.6003 19.5947 23.7482 19.352 23.8488C19.1093 23.9494 18.849 24.0008 18.5863 24H10.4137C10.151 24.0008 9.89072 23.9494 9.64802 23.8488C9.40532 23.7482 9.18504 23.6003 9 23.4137L4.58625 19C4.39972 18.815 4.25184 18.5947 4.1512 18.352C4.05056 18.1093 3.99916 17.849 4 17.5863V15H2V18C2 18.2652 1.89464 18.5196 1.70711 18.7071C1.51957 18.8946 1.26522 19 1 19C0.734784 19 0.48043 18.8946 0.292893 18.7071C0.105357 18.5196 0 18.2652 0 18V10C0 9.73478 0.105357 9.48043 0.292893 9.29289C0.48043 9.10536 0.734784 9 1 9C1.26522 9 1.51957 9.10536 1.70711 9.29289C1.89464 9.48043 2 9.73478 2 10V13H4V6C4 5.46957 4.21071 4.96086 4.58579 4.58579C4.96086 4.21071 5.46957 4 6 4H14V2H11C10.7348 2 10.4804 1.89464 10.2929 1.70711C10.1054 1.51957 10 1.26522 10 1C10 0.734784 10.1054 0.48043 10.2929 0.292893C10.4804 0.105357 10.7348 0 11 0H19C19.2652 0 19.5196 0.105357 19.7071 0.292893C19.8946 0.48043 20 0.734784 20 1C20 1.26522 19.8946 1.51957 19.7071 1.70711C19.5196 1.89464 19.2652 2 19 2H16V4H18.5863C18.849 3.99916 19.1093 4.05056 19.352 4.1512C19.5947 4.25184 19.815 4.39972 20 4.58625L24.4137 9H26C26.5304 9 27.0391 9.21071 27.4142 9.58579C27.7893 9.96086 28 10.4696 28 11V13H30V10C30 9.73478 30.1054 9.48043 30.2929 9.29289C30.4804 9.10536 30.7348 9 31 9C31.2652 9 31.5196 9.10536 31.7071 9.29289C31.8946 9.48043 32 9.73478 32 10Z" fill="black"/>
</svg>
