<svg width="26" height="26" viewBox="0 0 26 26" fill="none" xmlns="http://www.w3.org/2000/svg">
<path d="M26 13C25.9959 16.1773 24.8302 19.2434 22.7224 21.6208C20.6145 23.9982 17.7101 25.5228 14.5563 25.9075C14.486 25.9154 14.4149 25.9084 14.3476 25.8869C14.2803 25.8653 14.2183 25.8298 14.1657 25.7825C14.1132 25.7353 14.0712 25.6774 14.0427 25.6128C14.0141 25.5481 13.9996 25.4782 14 25.4075V16H17C17.1371 16.0003 17.2728 15.9724 17.3986 15.9181C17.5245 15.8637 17.6378 15.7841 17.7316 15.6841C17.8254 15.5841 17.8976 15.4659 17.9438 15.3368C17.9899 15.2077 18.0091 15.0705 18 14.9337C17.9779 14.6766 17.8593 14.4374 17.668 14.2641C17.4766 14.0909 17.2268 13.9965 16.9688 14H14V11C14 10.4696 14.2107 9.96086 14.5858 9.58579C14.9609 9.21071 15.4696 9 16 9H18C18.1371 9.0003 18.2728 8.97241 18.3986 8.91807C18.5245 8.86372 18.6378 8.78408 18.7316 8.68408C18.8254 8.58409 18.8976 8.46589 18.9438 8.33681C18.9899 8.20773 19.0091 8.07054 19 7.93375C18.9779 7.67617 18.8589 7.43656 18.667 7.26326C18.4752 7.08997 18.2248 6.99589 17.9663 7H16C14.9391 7 13.9217 7.42143 13.1716 8.17157C12.4214 8.92172 12 9.93913 12 11V14H9C8.86292 13.9997 8.72723 14.0276 8.60138 14.0819C8.47552 14.1363 8.36218 14.2159 8.2684 14.3159C8.17462 14.4159 8.1024 14.5341 8.05623 14.6632C8.01006 14.7923 7.99092 14.9295 8 15.0662C8.02212 15.3238 8.14111 15.5634 8.33296 15.7367C8.52482 15.91 8.77525 16.0041 9.03375 16H12V25.41C12.0004 25.4806 11.9859 25.5504 11.9574 25.615C11.9289 25.6795 11.8871 25.7373 11.8347 25.7845C11.7823 25.8317 11.7204 25.8673 11.6533 25.889C11.5861 25.9106 11.5151 25.9178 11.445 25.91C8.2067 25.5156 5.23446 23.9199 3.1166 21.4386C0.998734 18.9573 -0.110391 15.7713 0.00875425 12.5112C0.258754 5.76125 5.72625 0.273749 12.4813 0.0112489C14.2301 -0.0564936 15.9747 0.229188 17.6106 0.851205C19.2465 1.47322 20.7401 2.4188 22.0022 3.63137C23.2642 4.84394 24.2688 6.2986 24.9557 7.90834C25.6426 9.51808 25.9978 11.2498 26 13Z" fill="black"/>
</svg>
