<svg width="32" height="22" viewBox="0 0 32 22" fill="none" xmlns="http://www.w3.org/2000/svg">
<path d="M14.97 21.2425C14.9159 21.4588 14.7911 21.6509 14.6153 21.7881C14.4396 21.9254 14.223 22 14 22C13.9157 22.0004 13.8318 21.9903 13.75 21.97L9.75 20.97C9.63864 20.942 9.53293 20.8951 9.4375 20.8312L6.4375 18.8312C6.21688 18.6841 6.06376 18.4552 6.01183 18.1952C5.95991 17.9351 6.01343 17.665 6.16063 17.4444C6.30782 17.2237 6.53663 17.0706 6.79672 17.0187C7.05681 16.9668 7.32688 17.0203 7.5475 17.1675L10.4025 19.0713L14.235 20.03C14.3631 20.061 14.4837 20.1171 14.59 20.1949C14.6963 20.2727 14.7862 20.3708 14.8545 20.4835C14.9228 20.5961 14.9682 20.7212 14.988 20.8515C15.0078 20.9817 15.0017 21.1146 14.97 21.2425ZM31.5563 9.185C31.4742 9.43423 31.3436 9.66473 31.1719 9.86318C31.0003 10.0616 30.791 10.2241 30.5563 10.3413L27.5963 11.8213L25.7113 13.7075L20.7113 18.7075C20.5891 18.8296 20.4373 18.9179 20.2708 18.9639C20.1044 19.0099 19.9288 19.012 19.7613 18.97L11.7613 16.97C11.6396 16.9395 11.5247 16.8865 11.4225 16.8137L4.4825 11.8588L1.4475 10.3413C0.973172 10.1041 0.612429 9.68834 0.444594 9.18531C0.276759 8.68227 0.315573 8.13317 0.552502 7.65875L3.65875 1.4475C3.89587 0.973171 4.31166 0.612427 4.81469 0.444592C5.31773 0.276757 5.86683 0.315572 6.34125 0.5525L9.09875 1.9275L15.7238 0.0350005C15.9035 -0.0164072 16.094 -0.0164072 16.2738 0.0350005L22.8988 1.9275L25.6563 0.5525C26.1307 0.315572 26.6798 0.276757 27.1828 0.444592C27.6858 0.612427 28.1016 0.973171 28.3388 1.4475L31.445 7.65875C31.5635 7.89318 31.6343 8.14877 31.6534 8.41074C31.6725 8.67271 31.6395 8.93587 31.5563 9.185ZM23.5 13.0825L20.0363 10.3088C17.5938 12.3088 14.4925 12.5725 11.9225 10.9338C11.6697 10.7729 11.4563 10.5574 11.2979 10.303C11.1396 10.0486 11.0405 9.76194 11.0078 9.46411C10.9752 9.16627 11.0099 8.86491 11.1094 8.58229C11.2088 8.29966 11.3705 8.043 11.5825 7.83125C11.5855 7.82761 11.5889 7.82426 11.5925 7.82125L17.2 2.3825L16 2.04L9.6975 3.84125L6.27625 10.6825L12.4263 15.0763L19.6938 16.8925L23.5 13.0825ZM25.78 10.8025L22.3825 4H18.405L13 9.25C14.5825 10.2613 17.0638 10.54 19.29 8.29625C19.4639 8.121 19.6964 8.01625 19.9429 8.00218C20.1893 7.9881 20.4323 8.06569 20.625 8.22L24.9263 11.6663L25.78 10.8025Z" fill="black"/>
</svg>
