<svg width="20" height="28" viewBox="0 0 20 28" fill="none" xmlns="http://www.w3.org/2000/svg">
<path d="M12 0H8C5.87898 0.00231607 3.84549 0.845914 2.3457 2.3457C0.845915 3.84549 0.00231607 5.87898 0 8V20C0.00231607 22.121 0.845915 24.1545 2.3457 25.6543C3.84549 27.1541 5.87898 27.9977 8 28H12C14.121 27.9977 16.1545 27.1541 17.6543 25.6543C19.1541 24.1545 19.9977 22.121 20 20V8C19.9977 5.87898 19.1541 3.84549 17.6543 2.3457C16.1545 0.845914 14.121 0.00231607 12 0ZM18 20C17.9983 21.5908 17.3657 23.116 16.2408 24.2408C15.116 25.3657 13.5908 25.9983 12 26H8C6.40921 25.9983 4.88405 25.3657 3.75919 24.2408C2.63433 23.116 2.00165 21.5908 2 20V8C2.00165 6.40921 2.63433 4.88405 3.75919 3.75919C4.88405 2.63433 6.40921 2.00165 8 2H12C13.5908 2.00165 15.116 2.63433 16.2408 3.75919C17.3657 4.88405 17.9983 6.40921 18 8V20ZM11 6V12C11 12.2652 10.8946 12.5196 10.7071 12.7071C10.5196 12.8946 10.2652 13 10 13C9.73478 13 9.48043 12.8946 9.29289 12.7071C9.10536 12.5196 9 12.2652 9 12V6C9 5.73478 9.10536 5.48043 9.29289 5.29289C9.48043 5.10536 9.73478 5 10 5C10.2652 5 10.5196 5.10536 10.7071 5.29289C10.8946 5.48043 11 5.73478 11 6Z" fill="black"/>
</svg>
