<svg width="25" height="25" viewBox="0 0 25 25" fill="none" xmlns="http://www.w3.org/2000/svg">
<path d="M24.985 18.885C24.7621 20.5788 23.9303 22.1335 22.6449 23.2588C21.3595 24.3841 19.7084 25.0031 18 25C8.075 25 -1.33289e-07 16.925 -1.33289e-07 7C-0.00306261 5.29161 0.615859 3.64053 1.74117 2.35512C2.86647 1.06971 4.42121 0.237882 6.115 0.0149988C6.54332 -0.0373 6.97706 0.0503262 7.35148 0.264797C7.72591 0.479268 8.02092 0.80908 8.1925 1.205L10.8325 7.09875V7.11375C10.9639 7.41682 11.0181 7.7477 10.9904 8.07684C10.9627 8.40599 10.8539 8.72315 10.6737 9C10.6512 9.03375 10.6275 9.065 10.6025 9.09625L8 12.1812C8.93625 14.0837 10.9263 16.0562 12.8538 16.995L15.8962 14.4062C15.9261 14.3811 15.9574 14.3578 15.99 14.3362C16.2666 14.1518 16.5849 14.0391 16.916 14.0086C17.2471 13.978 17.5805 14.0305 17.8862 14.1612L17.9025 14.1687L23.7913 16.8075C24.1879 16.9785 24.5185 17.2732 24.7337 17.6477C24.9488 18.0222 25.037 18.4562 24.985 18.885Z" fill="black"/>
</svg>
