<svg width="25" height="25" viewBox="0 0 25 25" fill="none" xmlns="http://www.w3.org/2000/svg">
<path fill-rule="evenodd" clip-rule="evenodd" d="M8.375 2.08337C8.375 1.53109 8.82272 1.08337 9.375 1.08337H15.625C16.1773 1.08337 16.625 1.53109 16.625 2.08337V8.33337C16.625 8.88566 16.1773 9.33337 15.625 9.33337H9.375C8.82272 9.33337 8.375 8.88566 8.375 8.33337V2.08337ZM10.375 3.08337V7.33337H14.625V3.08337H10.375Z" fill="#FF862F"/>
<path fill-rule="evenodd" clip-rule="evenodd" d="M15.667 16.6666C15.667 16.1143 16.1147 15.6666 16.667 15.6666H22.917C23.4693 15.6666 23.917 16.1143 23.917 16.6666V22.9166C23.917 23.4689 23.4693 23.9166 22.917 23.9166H16.667C16.1147 23.9166 15.667 23.4689 15.667 22.9166V16.6666ZM17.667 17.6666V21.9166H21.917V17.6666H17.667Z" fill="#FF862F"/>
<path fill-rule="evenodd" clip-rule="evenodd" d="M1.08301 16.6666C1.08301 16.1143 1.53072 15.6666 2.08301 15.6666H8.33301C8.88529 15.6666 9.33301 16.1143 9.33301 16.6666V22.9166C9.33301 23.4689 8.88529 23.9166 8.33301 23.9166H2.08301C1.53072 23.9166 1.08301 23.4689 1.08301 22.9166V16.6666ZM3.08301 17.6666V21.9166H7.33301V17.6666H3.08301Z" fill="#FF862F"/>
<path fill-rule="evenodd" clip-rule="evenodd" d="M12.4997 7.33337C13.052 7.33337 13.4997 7.78109 13.4997 8.33337V11.5H19.7913C20.3436 11.5 20.7913 11.9478 20.7913 12.5V16.6667C20.7913 17.219 20.3436 17.6667 19.7913 17.6667C19.2391 17.6667 18.7913 17.219 18.7913 16.6667V13.5H12.7652L5.70415 17.535C5.39464 17.7118 5.0144 17.7105 4.70608 17.5316C4.39777 17.3527 4.20801 17.0232 4.20801 16.6667V12.5C4.20801 11.9478 4.65572 11.5 5.20801 11.5H11.4997V8.33337C11.4997 7.78109 11.9474 7.33337 12.4997 7.33337ZM8.73411 13.5H6.20801V14.9435L8.73411 13.5Z" fill="#FF862F"/>
</svg>
