<?xml version="1.0" encoding="UTF-8"?>
<svg xmlns="http://www.w3.org/2000/svg" xmlns:xlink="http://www.w3.org/1999/xlink" viewBox="0 0 50 50" width="50px" height="50px">
<g id="surface145984266">
<rect x="0" y="0" width="50" height="50" style="fill:rgb(15.294118%,48.627451%,34.901962%);fill-opacity:1;stroke:none;"/>
<path style=" stroke:none;fill-rule:nonzero;fill:rgb(56.078434%,0.784314%,0.784314%);fill-opacity:1;" d="M 8.28125 7.398438 C 7.792969 7.398438 7.398438 7.792969 7.398438 8.28125 L 7.398438 42.601562 C 7.398438 43.085938 7.792969 43.480469 8.28125 43.480469 L 42.601562 43.480469 C 43.085938 43.480469 43.480469 43.085938 43.480469 42.601562 L 43.480469 8.28125 C 43.480469 7.792969 43.085938 7.398438 42.601562 7.398438 Z M 9.160156 9.160156 L 41.71875 9.160156 L 41.71875 18.839844 L 19.71875 18.839844 C 19.234375 18.839844 18.839844 19.234375 18.839844 19.71875 L 18.839844 31.160156 C 18.839844 31.644531 19.234375 32.039062 19.71875 32.039062 L 30.28125 32.039062 L 30.28125 41.71875 L 9.160156 41.71875 Z M 20.601562 20.601562 L 41.71875 20.601562 L 41.71875 41.71875 L 32.039062 41.71875 L 32.039062 31.160156 C 32.039062 30.675781 31.644531 30.28125 31.160156 30.28125 L 20.601562 30.28125 Z M 20.601562 20.601562 "/>
<path style=" stroke:none;fill-rule:nonzero;fill:rgb(49.411765%,7.058824%,7.058824%);fill-opacity:1;" d="M 14.363281 16.800781 C 14.363281 16.503906 14.261719 16.25 14.050781 16.046875 C 13.84375 15.84375 13.488281 15.65625 12.992188 15.492188 C 12.300781 15.28125 11.796875 15.007812 11.480469 14.667969 C 11.164062 14.328125 11.007812 13.898438 11.007812 13.375 C 11.007812 12.84375 11.160156 12.40625 11.472656 12.066406 C 11.78125 11.722656 12.207031 11.523438 12.75 11.457031 L 12.75 10.390625 L 13.472656 10.390625 L 13.472656 11.460938 C 14.019531 11.535156 14.445312 11.765625 14.746094 12.148438 C 15.050781 12.53125 15.203125 13.054688 15.203125 13.71875 L 14.304688 13.71875 C 14.304688 13.261719 14.195312 12.898438 13.980469 12.628906 C 13.761719 12.359375 13.46875 12.226562 13.097656 12.226562 C 12.714844 12.226562 12.417969 12.324219 12.210938 12.523438 C 12.007812 12.726562 11.90625 13.003906 11.90625 13.359375 C 11.90625 13.691406 12.015625 13.957031 12.230469 14.152344 C 12.445312 14.347656 12.800781 14.523438 13.296875 14.6875 C 13.789062 14.847656 14.175781 15.023438 14.457031 15.21875 C 14.734375 15.410156 14.9375 15.636719 15.066406 15.890625 C 15.199219 16.148438 15.265625 16.449219 15.265625 16.792969 C 15.265625 17.339844 15.101562 17.78125 14.773438 18.117188 C 14.441406 18.449219 13.980469 18.648438 13.386719 18.710938 L 13.386719 19.640625 L 12.667969 19.640625 L 12.667969 18.710938 C 12.0625 18.65625 11.589844 18.441406 11.246094 18.066406 C 10.90625 17.691406 10.734375 17.179688 10.734375 16.539062 L 11.632812 16.539062 C 11.632812 16.988281 11.75 17.335938 11.988281 17.582031 C 12.226562 17.824219 12.5625 17.945312 12.996094 17.945312 C 13.421875 17.945312 13.757812 17.84375 14 17.636719 C 14.242188 17.433594 14.363281 17.15625 14.363281 16.800781 Z M 14.363281 16.800781 "/>
</g>
</svg>
