<svg width="36" height="30" viewBox="0 0 36 30" fill="none" xmlns="http://www.w3.org/2000/svg">
<g clip-path="url(#clip0_38_39)" filter="url(#filter0_d_38_39)">
<path d="M16.1289 15C16.1289 16.5857 17.4143 17.8711 19 17.8711C20.5857 17.8711 21.8711 16.5857 21.8711 15C21.8711 13.4143 20.5857 12.1289 19 12.1289C17.4143 12.1289 16.1289 13.4143 16.1289 15Z" fill="#999999"/>
<path d="M12.2856 9.91991C12.4236 9.54591 12.6438 9.2074 12.9299 8.92953C13.2077 8.64343 13.546 8.42325 13.9203 8.28523C14.2238 8.16736 14.6797 8.02705 15.5195 7.98883C16.4279 7.9474 16.7003 7.93848 19.0001 7.93848C21.3001 7.93848 21.5725 7.94717 22.4807 7.9886C23.3204 8.02705 23.7766 8.16736 24.0799 8.28523C24.4541 8.42325 24.7926 8.64343 25.0702 8.92953C25.3563 9.2074 25.5765 9.54568 25.7148 9.91991C25.8326 10.2234 25.9729 10.6796 26.0112 11.5193C26.0526 12.4275 26.0615 12.6999 26.0615 14.9999C26.0615 17.2997 26.0526 17.5721 26.0112 18.4805C25.9729 19.3203 25.8326 19.7762 25.7148 20.0797C25.5765 20.454 25.3566 20.7923 25.0705 21.0701C24.7926 21.3562 24.4543 21.5764 24.0801 21.7144C23.7766 21.8325 23.3204 21.9728 22.4807 22.011C21.5725 22.0525 21.3003 22.0612 19.0003 22.0612C16.7 22.0612 16.4277 22.0525 15.5197 22.011C14.6799 21.9728 14.2238 21.8325 13.9203 21.7144C13.1691 21.4247 12.5753 20.8309 12.2856 20.0797C12.1677 19.7762 12.0274 19.3203 11.989 18.4805C11.9475 17.5721 11.9388 17.2997 11.9388 14.9999C11.9388 12.6999 11.9475 12.4275 11.989 11.5193C12.0272 10.6796 12.1675 10.2234 12.2856 9.91991ZM19.0001 19.4226C21.4429 19.4226 23.4232 17.4426 23.4232 14.9997C23.4232 12.5569 21.4429 10.5768 19.0001 10.5768C16.5574 10.5768 14.5771 12.5569 14.5771 14.9997C14.5771 17.4426 16.5574 19.4226 19.0001 19.4226ZM14.4023 11.4356C14.9731 11.4356 15.4359 10.9728 15.4359 10.4019C15.4359 9.8311 14.9731 9.3683 14.4023 9.3683C13.8315 9.3683 13.3687 9.8311 13.3687 10.4019C13.3689 10.9728 13.8315 11.4356 14.4023 11.4356Z" fill="#999999"/>
<path d="M19 0C27.283 0 34 6.717 34 15C34 23.283 27.283 30 19 30C10.717 30 4 23.283 4 15C4 6.717 10.717 0 19 0ZM10.4387 18.5511C10.4803 19.468 10.6261 20.094 10.839 20.6419C11.2865 21.7989 12.2011 22.7135 13.3581 23.161C13.9058 23.3739 14.532 23.5194 15.4487 23.5613C16.3672 23.6032 16.6606 23.6133 18.9998 23.6133C21.3392 23.6133 21.6324 23.6032 22.5511 23.5613C23.4678 23.5194 24.094 23.3739 24.6417 23.161C25.2167 22.9447 25.7371 22.6057 26.1674 22.1674C26.6055 21.7374 26.9445 21.2167 27.1608 20.6419C27.3736 20.0942 27.5194 19.468 27.5611 18.5513C27.6034 17.6326 27.6133 17.3392 27.6133 15C27.6133 12.6608 27.6034 12.3674 27.5613 11.4489C27.5197 10.532 27.3741 9.90601 27.1612 9.35806C26.9449 8.78334 26.6057 8.26263 26.1674 7.83257C25.7374 7.39426 25.2167 7.05528 24.6419 6.83899C24.094 6.62613 23.468 6.48056 22.5511 6.43867C21.6326 6.39679 21.3392 6.38672 19 6.38672C16.6608 6.38672 16.3674 6.39679 15.4489 6.4389C14.532 6.48056 13.906 6.62613 13.3581 6.83876C12.7833 7.05505 12.2626 7.39426 11.8323 7.83257C11.3943 8.26286 11.0551 8.78334 10.839 9.35806C10.6259 9.90601 10.4803 10.532 10.4384 11.4489C10.3966 12.3674 10.3867 12.6608 10.3867 15C10.3867 17.3392 10.3966 17.6326 10.4387 18.5511Z" fill="#999999"/>
</g>
<defs>
<filter id="filter0_d_38_39" x="0" y="0" width="38" height="38" filterUnits="userSpaceOnUse" color-interpolation-filters="sRGB">
<feFlood flood-opacity="0" result="BackgroundImageFix"/>
<feColorMatrix in="SourceAlpha" type="matrix" values="0 0 0 0 0 0 0 0 0 0 0 0 0 0 0 0 0 0 127 0" result="hardAlpha"/>
<feOffset dy="4"/>
<feGaussianBlur stdDeviation="2"/>
<feComposite in2="hardAlpha" operator="out"/>
<feColorMatrix type="matrix" values="0 0 0 0 0 0 0 0 0 0 0 0 0 0 0 0 0 0 0.25 0"/>
<feBlend mode="normal" in2="BackgroundImageFix" result="effect1_dropShadow_38_39"/>
<feBlend mode="normal" in="SourceGraphic" in2="effect1_dropShadow_38_39" result="shape"/>
</filter>
<clipPath id="clip0_38_39">
<rect width="30" height="30" fill="white" transform="matrix(-1 0 0 1 34 0)"/>
</clipPath>
</defs>
</svg>
