<svg width="12" height="12" viewBox="0 0 12 12" fill="none" xmlns="http://www.w3.org/2000/svg">
<path fill-rule="evenodd" clip-rule="evenodd" d="M3.59468 1.71967C3.73533 1.57902 3.9261 1.5 4.12501 1.5H7.87501C8.07392 1.5 8.26469 1.57902 8.40534 1.71967C8.54599 1.86032 8.62501 2.05109 8.62501 2.25V6H10.5C10.6517 6 10.7884 6.09137 10.8465 6.23149C10.9045 6.37162 10.8724 6.53292 10.7652 6.64016L6.26518 11.1402C6.11873 11.2866 5.88129 11.2866 5.73485 11.1402L1.23485 6.64016C1.1276 6.53292 1.09551 6.37162 1.15356 6.23149C1.2116 6.09137 1.34834 6 1.50001 6H3.37501V2.25C3.37501 2.05109 3.45403 1.86032 3.59468 1.71967ZM7.87501 2.25L4.12501 2.25V6.375C4.12501 6.58211 3.95712 6.75 3.75001 6.75H2.40534L6.00001 10.3447L9.59468 6.75H8.25001C8.0429 6.75 7.87501 6.58211 7.87501 6.375V2.25Z" fill="#808A9A"/>
</svg>
