<svg width="63" height="62" viewBox="0 0 63 62" fill="none" xmlns="http://www.w3.org/2000/svg">
<g clip-path="url(#clip0_616_76676)">
<path d="M62.5 31C62.5 13.8792 48.6208 0 31.5 0C14.3792 0 0.5 13.8792 0.5 31C0.5 48.1208 14.3792 62 31.5 62C48.6208 62 62.5 48.1208 62.5 31Z" fill="#F8931A"/>
<path fill-rule="evenodd" clip-rule="evenodd" d="M31.5 17.9375C26.9091 17.9375 23.1875 21.6591 23.1875 26.25C23.1875 30.8409 26.9091 34.5625 31.5 34.5625C36.0909 34.5625 39.8125 30.8409 39.8125 26.25C39.8125 21.6591 36.0909 17.9375 31.5 17.9375ZM20.8125 26.25C20.8125 20.3475 25.5975 15.5625 31.5 15.5625C37.4025 15.5625 42.1875 20.3475 42.1875 26.25C42.1875 32.1525 37.4025 36.9375 31.5 36.9375C25.5975 36.9375 20.8125 32.1525 20.8125 26.25Z" fill="white"/>
<path fill-rule="evenodd" clip-rule="evenodd" d="M31.5002 36.9355C28.7901 36.9355 26.1278 37.649 23.7808 39.0041C21.4339 40.3593 19.485 42.3084 18.1302 44.6555C17.8024 45.2235 17.0761 45.4182 16.5081 45.0903C15.9401 44.7625 15.7454 44.0362 16.0733 43.4682C17.6366 40.76 19.8852 38.511 22.5932 36.9474C25.3012 35.3837 28.3732 34.5605 31.5002 34.5605C34.6272 34.5605 37.6992 35.3837 40.4072 36.9474C43.1152 38.511 45.3638 40.76 46.9271 43.4682C47.255 44.0362 47.0603 44.7625 46.4923 45.0903C45.9243 45.4182 45.198 45.2235 44.8702 44.6555C43.5153 42.3084 41.5665 40.3593 39.2196 39.0041C36.8726 37.649 34.2103 36.9355 31.5002 36.9355Z" fill="white"/>
</g>
<defs>
<clipPath id="clip0_616_76676">
<rect width="62" height="62" fill="white" transform="translate(0.5)"/>
</clipPath>
</defs>
</svg>
